<?xml version="1.0" standalone="no"?>
<!DOCTYPE svg PUBLIC "-//W3C//DTD SVG 20010904//EN"
 "http://www.w3.org/TR/2001/REC-SVG-20010904/DTD/svg10.dtd">
<svg version="1.0" xmlns="http://www.w3.org/2000/svg"
 width="1408.000000pt" height="1408.000000pt" viewBox="0 0 1408.000000 1408.000000"
 preserveAspectRatio="xMidYMid meet">
<metadata>
Created by potrace 1.14, written by Peter Selinger 2001-2017
</metadata>
<g transform="translate(0.000000,1408.000000) scale(0.100000,-0.100000)"
fill="#000000" stroke="none">
<path d="M1003 13114 c-849 -849 -965 -968 -950 -979 9 -7 17 -18 17 -24 0 -7
4 -9 10 -6 9 6 14 -8 11 -27 0 -5 8 -8 19 -8 11 0 20 -4 20 -9 0 -12 58 -71
70 -71 6 0 10 -5 10 -10 0 -6 11 -20 25 -32 13 -11 22 -25 19 -30 -3 -5 -2 -8
3 -7 20 3 34 -2 28 -11 -3 -5 1 -10 10 -10 9 0 13 -4 10 -10 -3 -5 1 -10 9
-10 14 0 20 -12 17 -32 0 -5 8 -8 19 -8 11 0 20 -5 20 -10 0 -6 11 -20 25 -32
13 -11 22 -25 19 -30 -3 -5 -2 -8 3 -7 20 3 34 -2 28 -11 -3 -5 1 -10 10 -10
12 0 15 -6 10 -22 -4 -15 -3 -18 2 -10 7 9 14 7 31 -9 12 -11 19 -25 16 -31
-4 -6 -3 -8 3 -5 13 8 46 -27 36 -37 -5 -4 -3 -7 2 -6 22 5 35 -1 35 -15 0 -8
4 -15 10 -15 13 0 76 -70 72 -82 -1 -5 2 -7 6 -4 12 7 44 -28 35 -38 -5 -4 -3
-7 2 -6 22 5 35 -1 35 -15 0 -8 4 -15 9 -15 18 0 69 -63 64 -79 -4 -14 -3 -14
7 -1 9 12 12 13 17 1 3 -7 16 -22 29 -34 13 -11 21 -24 18 -29 -3 -5 -2 -8 3
-7 20 3 34 -2 28 -11 -3 -5 1 -10 10 -10 12 0 15 -6 10 -22 -5 -18 -4 -20 4
-8 10 13 12 13 20 0 5 -8 7 -18 5 -22 -3 -4 4 -8 15 -8 12 0 21 -5 21 -10 0
-6 11 -20 25 -32 13 -11 22 -25 19 -30 -3 -5 -2 -8 3 -7 20 3 34 -2 28 -11 -3
-5 1 -10 10 -10 12 0 15 -6 10 -22 -4 -15 -3 -18 2 -10 7 9 14 7 31 -9 12 -11
19 -25 16 -31 -4 -6 -3 -8 3 -5 5 4 20 -5 31 -18 12 -14 26 -25 32 -25 5 0 10
-6 10 -14 0 -8 8 -17 18 -21 9 -3 28 -21 42 -39 14 -19 28 -32 33 -29 4 2 7
-3 7 -12 0 -9 5 -13 10 -10 9 6 14 -8 11 -28 -1 -5 2 -6 7 -3 5 3 18 -5 29
-18 12 -13 27 -26 34 -29 12 -5 11 -8 -1 -17 -13 -10 -13 -11 1 -7 16 5 79
-46 79 -64 0 -5 7 -9 15 -9 14 0 20 -12 16 -33 -1 -5 3 -6 7 -3 12 7 44 -28
35 -38 -5 -4 -3 -6 3 -4 13 3 84 -57 84 -72 0 -6 7 -10 15 -10 8 0 15 -5 15
-10 0 -6 11 -20 25 -32 13 -11 22 -26 18 -31 -3 -6 -1 -7 5 -3 11 6 52 -30 52
-46 0 -5 4 -6 10 -3 5 3 10 -1 10 -10 0 -9 5 -13 10 -10 9 6 14 -8 11 -28 -1
-5 2 -6 7 -3 5 3 19 -6 30 -19 12 -14 26 -25 32 -25 5 0 10 -10 10 -22 0 -16
3 -19 8 -10 6 9 12 6 22 -12 7 -14 17 -23 22 -20 4 3 8 -2 8 -11 0 -9 4 -13
10 -10 9 6 14 -8 11 -28 -1 -5 2 -6 7 -3 5 3 18 -5 29 -18 12 -13 27 -26 34
-29 12 -5 11 -8 -1 -17 -13 -10 -13 -11 1 -7 16 5 79 -46 79 -64 0 -5 7 -9 15
-9 14 0 20 -12 16 -33 -1 -5 3 -6 7 -3 12 7 44 -28 35 -38 -5 -4 -3 -6 3 -4
13 3 84 -57 84 -72 0 -6 7 -10 15 -10 8 0 15 -5 15 -10 0 -6 11 -20 25 -32 13
-11 22 -26 18 -31 -3 -6 -1 -7 5 -3 11 6 52 -30 52 -46 0 -5 5 -6 10 -3 6 3
10 -1 10 -10 0 -9 5 -13 10 -10 9 6 14 -8 11 -28 -1 -5 2 -6 7 -3 5 3 19 -6
30 -19 12 -14 26 -25 32 -25 5 0 10 -6 10 -14 0 -8 10 -18 21 -21 17 -6 19 -9
8 -16 -10 -6 -8 -9 9 -9 12 0 22 -5 22 -10 0 -6 11 -20 25 -32 13 -11 22 -25
19 -30 -3 -5 -2 -8 3 -7 20 3 34 -2 28 -11 -3 -5 1 -10 10 -10 12 0 15 -6 10
-22 -4 -15 -3 -18 2 -10 7 9 14 7 31 -9 12 -11 19 -25 16 -31 -4 -6 -3 -8 3
-5 5 4 20 -5 31 -18 12 -14 26 -25 32 -25 5 0 10 -7 10 -15 0 -8 4 -15 10 -15
13 0 76 -70 72 -82 -1 -5 2 -7 6 -4 12 7 44 -28 35 -38 -5 -4 -3 -7 2 -6 22 5
35 -1 35 -15 0 -8 4 -15 9 -15 18 0 69 -63 64 -79 -4 -14 -3 -14 7 -1 9 12 12
13 17 1 3 -7 16 -22 29 -34 13 -11 21 -24 18 -29 -3 -5 -2 -8 3 -7 20 3 34 -2
28 -11 -3 -5 1 -10 10 -10 9 0 14 -3 12 -7 -3 -5 10 -19 29 -33 18 -14 36 -33
39 -42 4 -10 13 -18 21 -18 8 0 14 -5 14 -10 0 -6 11 -20 25 -32 13 -11 22
-26 18 -31 -3 -6 -1 -7 5 -3 11 6 52 -30 52 -46 0 -5 5 -6 10 -3 5 3 10 -1 10
-10 0 -9 5 -13 10 -10 9 6 14 -8 11 -28 -1 -5 2 -6 7 -3 5 3 19 -6 30 -19 12
-14 26 -25 32 -25 5 0 10 -9 10 -21 0 -11 4 -18 8 -15 4 2 14 0 22 -5 13 -8
13 -10 0 -20 -12 -8 -10 -9 8 -4 16 5 22 2 22 -10 0 -9 5 -13 10 -10 9 6 14
-8 11 -28 -1 -5 2 -6 7 -3 5 3 18 -5 29 -18 12 -13 27 -26 34 -29 12 -5 11 -8
-1 -17 -13 -10 -13 -11 1 -7 16 5 79 -46 79 -64 0 -5 7 -9 15 -9 14 0 20 -12
16 -33 -1 -5 3 -6 7 -3 12 7 44 -28 35 -39 -5 -4 -3 -5 4 -1 14 8 65 -43 56
-57 -3 -6 -2 -7 4 -4 5 4 20 -5 31 -18 12 -14 26 -25 32 -25 5 0 10 -7 10 -15
0 -8 4 -15 9 -15 18 0 69 -63 64 -79 -4 -14 -3 -14 7 -1 9 12 12 13 17 1 3 -7
16 -22 29 -34 13 -11 21 -24 18 -29 -3 -5 -2 -8 3 -7 20 3 34 -2 28 -11 -3 -5
1 -10 10 -10 9 0 13 -4 10 -10 -3 -5 1 -10 9 -10 14 0 20 -12 17 -32 0 -5 8
-8 19 -8 11 0 20 -5 20 -10 0 -6 11 -20 25 -32 13 -11 22 -25 19 -30 -3 -5 -2
-8 3 -7 20 3 34 -2 28 -11 -3 -5 1 -10 10 -10 9 0 13 -4 10 -10 -3 -6 -2 -10
3 -10 16 0 52 -41 46 -52 -4 -6 -3 -8 3 -5 5 4 20 -5 31 -18 12 -14 26 -25 32
-25 5 0 10 -7 10 -15 0 -8 4 -15 10 -15 14 0 60 -52 54 -62 -3 -4 4 -8 15 -8
12 0 21 -5 21 -10 0 -6 11 -20 25 -32 13 -11 22 -25 19 -30 -3 -5 -2 -8 3 -7
20 3 34 -2 28 -11 -3 -6 1 -10 10 -10 9 0 13 -4 10 -10 -3 -6 -2 -10 3 -10 16
0 52 -41 46 -52 -4 -6 -3 -8 3 -5 13 8 46 -27 36 -37 -5 -4 -3 -7 2 -6 22 5
35 -1 35 -15 0 -8 4 -15 10 -15 13 0 76 -70 72 -82 -1 -5 2 -7 6 -4 12 7 44
-28 35 -38 -5 -4 -3 -7 2 -6 22 5 35 -1 35 -15 0 -8 4 -15 9 -15 18 0 69 -63
64 -79 -4 -14 -3 -14 7 -1 9 12 12 13 17 1 3 -7 16 -22 29 -34 13 -11 21 -24
18 -29 -3 -5 -2 -8 3 -7 19 3 34 -2 28 -10 -3 -5 2 -11 12 -13 11 -2 -799
-819 -2520 -2540 l-2538 -2538 48 -51 c26 -28 47 -55 45 -61 -1 -5 2 -7 6 -4
15 9 55 -32 48 -49 -3 -9 -2 -13 4 -10 5 3 18 1 27 -4 14 -8 15 -11 3 -11 -8
0 0 -8 18 -17 24 -12 30 -19 22 -29 -9 -9 -7 -11 7 -8 12 3 25 -5 38 -26 11
-16 24 -30 29 -30 14 0 46 -42 40 -52 -3 -4 -2 -8 3 -7 23 4 33 -3 34 -23 0
-13 3 -17 6 -10 4 10 8 9 18 -5 8 -11 10 -22 4 -29 -5 -7 -4 -11 6 -11 8 0 12
4 9 9 -3 4 -2 8 1 8 9 0 35 -27 35 -37 0 -4 14 -17 30 -28 16 -11 30 -26 30
-32 0 -7 3 -13 8 -13 14 0 62 -51 56 -61 -3 -5 0 -8 8 -7 7 2 12 -3 10 -10 -1
-6 1 -11 5 -11 19 3 33 -2 33 -12 0 -5 -6 -7 -12 -3 -9 5 -9 2 1 -9 15 -18 26
-23 16 -7 -3 6 -1 10 4 10 10 0 15 -14 12 -33 -1 -5 3 -6 7 -3 15 9 55 -32 48
-49 -3 -9 -2 -14 3 -10 5 3 16 2 25 -1 12 -5 14 -10 6 -19 -9 -11 -6 -12 11
-8 18 5 21 3 16 -10 -3 -9 -1 -19 5 -23 7 -4 8 -3 4 4 -11 19 5 14 20 -5 9
-14 10 -22 1 -33 -9 -12 -9 -13 3 -3 15 14 50 0 50 -20 0 -7 9 -18 20 -25 12
-7 18 -17 15 -22 -4 -6 1 -7 11 -3 14 5 16 3 11 -11 -4 -10 -3 -15 3 -11 5 3
15 -3 22 -15 7 -11 17 -20 21 -20 10 0 37 -26 37 -35 0 -3 -4 -4 -8 -1 -5 3
-9 -1 -9 -9 0 -10 4 -11 11 -6 7 6 18 4 29 -3 19 -15 24 -31 5 -20 -9 5 -9 2
1 -9 15 -18 26 -23 16 -7 -3 6 -1 10 4 10 10 0 15 -14 12 -33 -1 -5 3 -6 8 -3
10 6 61 -42 61 -56 0 -5 6 -8 13 -8 6 0 21 -14 32 -30 11 -16 25 -30 32 -30
20 0 34 -35 20 -51 -10 -12 -10 -12 3 -1 19 16 33 15 27 -3 -4 -8 -1 -17 5
-21 7 -4 8 -3 4 4 -11 19 5 14 20 -5 7 -11 9 -22 3 -29 -5 -7 -4 -11 6 -11 8
0 12 4 9 9 -3 4 -2 8 1 8 10 0 35 -27 35 -38 0 -5 11 -15 25 -22 13 -7 22 -17
20 -21 -3 -4 4 -10 15 -14 11 -3 20 -12 20 -18 0 -7 14 -21 30 -32 16 -11 30
-26 30 -32 0 -7 3 -13 8 -13 14 0 62 -51 56 -61 -3 -5 -2 -9 3 -8 23 4 33 -3
34 -23 0 -13 3 -17 6 -10 4 10 8 9 18 -5 8 -11 10 -22 4 -29 -5 -7 -4 -11 6
-11 8 0 12 4 9 9 -3 4 -2 8 1 8 9 0 35 -27 35 -37 0 -4 14 -17 30 -28 17 -11
28 -26 25 -33 -3 -7 0 -10 5 -7 5 3 15 -3 22 -15 7 -11 17 -20 21 -20 10 0 37
-26 37 -35 0 -3 -4 -4 -8 -1 -5 3 -9 -1 -9 -9 0 -10 4 -11 11 -6 7 6 18 4 29
-4 14 -10 15 -14 5 -18 -9 -4 -7 -6 4 -6 15 -1 68 -45 68 -56 0 -3 9 -14 20
-25 11 -11 20 -15 20 -9 0 6 7 8 16 5 8 -3 12 -2 9 4 -3 6 -1 10 5 10 6 0 8 4
5 10 -3 5 1 10 10 10 10 0 13 5 9 12 -5 8 -2 9 9 5 9 -3 16 -3 14 2 -1 4 15
26 36 49 20 23 37 40 37 37 0 -3 6 0 14 7 8 7 12 16 10 19 -7 13 24 17 37 6
11 -10 11 -9 0 6 -12 15 -9 21 11 18 4 0 5 6 2 14 -6 14 6 20 29 16 5 -1 6 3
2 9 -3 5 1 13 9 16 9 3 13 10 10 15 -3 5 2 9 11 9 10 0 13 5 9 12 -5 8 -2 9
10 5 9 -4 15 -3 12 1 -8 13 22 44 35 36 7 -4 10 -3 5 4 -3 6 5 19 19 30 13 11
21 22 18 26 -3 3 2 6 12 6 10 0 15 3 12 6 -4 4 9 19 29 35 19 15 36 31 37 36
1 4 8 7 14 7 7 -1 10 2 7 7 -3 5 0 9 6 9 6 0 8 5 5 10 -3 6 1 10 10 10 10 0
13 5 9 12 -5 8 -2 9 10 5 9 -4 15 -3 12 2 -7 11 29 43 38 34 4 -5 7 -3 6 2 -5
24 1 37 15 31 8 -3 14 -2 14 2 -3 20 3 23 19 11 15 -12 16 -12 5 1 -8 10 -9
21 -3 30 6 8 10 11 10 7 0 -4 6 -2 14 5 8 7 13 15 12 18 -1 3 8 15 21 27 13
12 23 20 23 18 0 -3 8 3 18 13 11 9 17 20 15 25 -4 7 12 11 30 8 5 -1 6 3 3 7
-7 12 28 44 38 35 4 -5 7 -3 6 2 -4 20 0 36 9 31 5 -3 12 1 15 10 5 14 9 14
24 3 15 -12 16 -12 5 1 -8 10 -9 21 -3 30 6 8 10 11 10 5 0 -5 5 -2 11 8 6 9
14 15 20 12 5 -4 6 2 2 11 -4 12 -3 15 5 10 7 -4 12 -1 12 9 0 9 3 14 8 12 7
-5 33 17 32 28 0 3 3 5 6 4 3 0 18 16 33 35 16 20 31 33 35 29 3 -3 6 1 6 11
0 9 5 14 10 11 6 -3 10 -2 10 2 0 15 72 83 81 77 5 -3 6 3 2 12 -4 12 -3 15 5
10 7 -4 12 -1 12 8 0 9 4 15 9 14 5 -2 9 1 9 6 0 17 26 25 42 13 13 -11 13
-10 1 5 -11 15 -11 19 3 24 9 3 13 10 10 15 -5 8 10 13 29 10 5 -1 6 3 3 7 -7
12 28 44 38 35 4 -5 7 -3 6 2 -4 19 0 36 8 32 9 -5 42 30 35 37 -6 6 12 10 30
7 4 0 6 2 6 6 -3 18 2 34 9 30 4 -3 13 1 20 9 7 8 9 14 5 14 -4 0 -1 4 7 10 9
6 20 5 30 -3 13 -11 13 -10 1 6 -12 15 -9 21 11 18 4 0 5 6 2 14 -6 14 6 20
29 16 5 -1 6 3 2 9 -3 5 1 13 9 16 9 3 13 10 10 15 -3 5 2 9 11 9 10 0 13 5 9
12 -5 8 -2 9 10 5 9 -4 15 -3 12 2 -6 9 62 81 77 81 4 0 5 5 2 10 -3 6 2 10
11 10 10 0 14 3 11 6 -4 4 9 19 29 35 19 15 35 30 35 33 -1 3 0 5 2 4 6 -6 35
27 30 35 -2 4 3 7 12 7 10 0 13 5 9 12 -5 8 -2 9 10 5 9 -4 15 -3 11 2 -3 5 6
18 20 29 13 11 21 22 18 26 -3 3 1 6 11 6 11 0 14 4 10 12 -5 8 -2 9 10 5 9
-4 15 -3 12 2 -6 9 62 81 77 81 4 0 5 4 2 10 -3 5 2 10 11 10 10 0 14 3 11 6
-4 4 9 19 29 35 19 15 35 30 35 33 -1 3 1 6 4 6 11 -1 33 25 28 33 -2 4 3 7
12 7 10 0 13 5 9 12 -5 8 -2 9 10 5 9 -4 15 -3 11 2 -3 6 3 14 12 20 10 6 14
11 8 11 -5 0 -3 4 5 10 9 6 20 5 30 -3 13 -11 13 -10 1 5 -11 15 -11 19 3 24
9 3 13 10 10 15 -5 8 9 13 29 10 4 0 6 3 5 7 -2 4 9 23 25 41 15 18 27 30 27
27 0 -3 8 2 18 12 11 9 18 19 17 22 -1 3 9 15 22 27 13 12 23 20 23 17 0 -3 6
1 14 8 8 7 12 16 10 19 -7 13 24 17 37 6 11 -10 11 -9 0 6 -12 15 -9 21 11 18
4 0 5 6 2 14 -6 13 6 20 29 16 4 0 6 5 5 11 -2 7 3 12 10 10 6 -1 11 1 11 5
-4 23 3 35 16 29 8 -3 14 -2 14 2 -3 20 3 23 19 11 15 -12 16 -12 5 1 -8 10
-9 21 -3 30 6 8 10 11 10 7 0 -4 6 -2 14 5 8 7 12 15 11 18 -2 3 10 15 26 25
16 11 29 26 29 33 0 6 8 12 17 12 9 0 14 3 10 6 -7 7 54 60 65 56 4 -1 7 1 7
5 -3 20 2 34 10 29 5 -3 12 1 15 10 5 14 9 14 24 3 15 -12 16 -12 5 1 -8 10
-9 21 -3 30 6 8 10 11 10 5 0 -5 5 -2 11 8 6 9 14 15 20 12 5 -4 6 2 2 11 -4
12 -3 15 5 10 7 -4 12 -1 12 9 0 9 3 14 8 12 7 -5 26 11 30 26 1 4 5 7 8 6 3
0 18 16 33 35 16 20 31 33 35 29 3 -3 6 1 6 11 0 9 5 14 10 11 6 -3 10 -2 10
3 0 14 72 82 81 76 5 -3 6 3 2 12 -4 12 -3 15 5 10 7 -4 12 -1 12 8 0 9 4 15
9 14 5 -2 9 1 9 6 0 17 26 25 42 13 13 -11 13 -10 1 5 -11 15 -11 19 3 24 9 3
13 10 10 15 -5 8 10 13 29 10 5 -1 6 3 3 7 -7 12 28 44 38 35 4 -5 7 -3 6 2
-4 19 0 36 8 32 4 -2 15 4 25 15 9 10 15 18 12 18 -2 0 6 10 18 23 12 13 24
22 27 21 3 -1 11 4 18 12 7 8 9 14 5 14 -4 0 -1 4 7 10 9 6 20 5 30 -3 13 -11
13 -10 1 6 -12 15 -9 21 11 18 4 0 5 6 2 14 -6 14 6 20 29 16 5 -1 6 3 2 9 -3
5 1 13 9 16 9 3 13 10 10 15 -3 5 2 9 11 9 10 0 13 5 9 12 -5 8 -2 9 10 5 9
-4 15 -3 12 1 -8 13 22 44 35 36 7 -4 10 -3 5 4 -3 6 5 19 19 30 13 11 21 22
18 26 -3 3 2 6 12 6 10 0 15 3 12 6 -4 4 9 19 29 35 19 15 36 31 37 36 1 4 8
7 14 7 7 -1 10 2 7 7 -3 5 0 9 6 9 6 0 8 5 5 10 -3 6 1 10 10 10 10 0 13 5 9
12 -5 8 -2 9 10 5 9 -4 15 -3 12 2 -7 11 29 43 38 34 4 -5 7 -3 6 2 -4 20 0
36 9 31 5 -3 12 1 15 10 5 14 9 14 24 3 15 -12 16 -12 5 1 -8 10 -9 21 -3 30
6 8 10 11 10 7 0 -4 6 -2 14 5 8 7 13 15 12 18 -1 3 8 15 21 27 13 12 23 20
23 18 0 -3 8 3 18 13 11 9 17 20 15 25 -4 7 12 11 30 8 5 -1 6 3 3 7 -7 12 28
44 38 35 4 -5 7 -3 6 2 -4 20 0 36 9 31 5 -3 12 1 15 10 5 14 9 14 24 3 15
-12 16 -12 5 1 -8 10 -9 21 -3 30 6 8 10 11 10 5 0 -5 5 -2 11 8 6 9 14 15 20
12 5 -4 6 2 2 11 -4 12 -3 15 5 10 7 -4 12 -1 12 9 0 9 5 13 10 10 6 -3 10 -1
10 5 0 6 4 9 9 6 5 -3 8 0 7 7 0 6 3 13 7 14 5 1 21 18 36 37 16 20 31 33 35
29 3 -3 6 1 6 11 0 9 5 14 10 11 6 -3 10 -2 10 3 0 14 72 82 81 76 5 -3 6 3 2
12 -4 12 -3 15 5 10 7 -4 12 -1 12 8 0 9 3 15 8 14 4 -2 8 1 9 6 3 17 27 25
43 13 13 -11 13 -10 1 5 -11 15 -11 19 3 24 9 3 13 10 10 15 -5 8 10 13 29 10
5 -1 6 3 3 7 -7 12 28 44 38 35 4 -5 7 -3 6 2 -4 19 0 36 8 32 4 -2 15 4 25
15 9 10 15 18 12 18 -2 0 6 10 18 23 12 13 24 22 27 21 3 -1 11 4 18 12 7 8 9
14 5 14 -4 0 -1 4 7 10 9 6 20 5 30 -3 13 -11 13 -10 1 5 -12 16 -9 22 11 19
4 0 5 6 2 14 -6 14 6 20 29 16 5 -1 6 3 2 9 -3 5 1 13 9 16 9 3 13 10 10 15
-3 5 2 9 11 9 10 0 13 5 9 12 -5 8 -2 9 10 5 9 -4 15 -3 12 2 -6 9 62 81 77
81 4 0 5 5 2 10 -3 6 2 10 11 10 10 0 14 3 11 6 -4 4 9 19 29 35 19 15 35 30
35 33 -1 3 1 6 4 6 11 -1 33 25 28 32 -2 5 3 8 12 8 9 0 13 5 10 10 -3 6 1 10
10 10 10 0 13 5 9 12 -5 8 -2 9 10 5 9 -4 15 -3 12 2 -3 5 2 15 12 22 9 7 14
10 10 5 -7 -8 20 -37 61 -66 15 -10 17 -16 8 -22 -8 -5 -4 -8 11 -8 20 0 27
-10 23 -33 -1 -5 3 -6 7 -3 12 7 44 -28 35 -39 -5 -4 -3 -5 4 -2 15 9 45 -21
37 -35 -4 -6 -2 -8 3 -5 13 8 46 -27 36 -37 -5 -4 -3 -7 2 -6 22 5 35 -1 35
-15 0 -8 4 -15 10 -15 13 0 76 -70 72 -82 -1 -5 2 -7 6 -4 12 7 44 -28 35 -38
-5 -4 -3 -7 2 -6 22 5 35 -1 35 -15 0 -8 4 -15 9 -15 18 0 69 -63 64 -79 -4
-14 -3 -14 7 -1 9 12 12 13 17 1 3 -7 16 -22 29 -34 13 -11 21 -24 18 -29 -3
-5 -2 -8 3 -7 20 3 34 -2 28 -11 -3 -6 1 -10 10 -10 12 0 15 -6 10 -22 -5 -18
-4 -20 4 -8 9 13 13 11 28 -10 10 -14 17 -29 15 -33 -1 -5 1 -6 6 -3 5 3 19
-6 30 -19 12 -14 26 -25 32 -25 5 0 10 -7 10 -15 0 -8 4 -15 9 -15 18 0 69
-63 64 -79 -4 -14 -3 -14 7 -1 9 12 12 13 17 1 3 -7 16 -22 29 -34 13 -11 21
-24 18 -29 -3 -5 -2 -8 3 -7 20 3 34 -2 28 -11 -3 -5 1 -10 10 -10 9 0 13 -4
10 -10 -3 -5 1 -10 9 -10 14 0 20 -12 17 -33 0 -4 8 -7 19 -7 11 0 20 -5 20
-10 0 -6 11 -20 25 -32 13 -11 22 -25 19 -30 -3 -5 -2 -8 3 -7 20 3 34 -2 28
-11 -3 -5 1 -10 10 -10 12 0 15 -6 10 -22 -4 -15 -3 -18 2 -10 7 9 14 7 31 -9
12 -11 19 -25 16 -31 -4 -6 -3 -8 3 -5 13 8 46 -27 36 -37 -5 -4 -3 -7 2 -6
22 5 35 -1 35 -15 0 -8 4 -15 10 -15 13 0 76 -70 72 -82 -1 -5 2 -7 6 -4 12 7
44 -28 35 -38 -5 -4 -3 -7 2 -6 22 5 35 -1 35 -15 0 -8 4 -15 9 -15 18 0 69
-63 64 -79 -4 -14 -3 -14 7 -1 9 12 12 13 17 1 3 -7 16 -22 29 -34 13 -11 21
-24 18 -29 -3 -5 -2 -8 3 -7 20 3 34 -2 28 -11 -3 -5 1 -10 10 -10 12 0 15 -6
10 -22 -5 -18 -4 -20 4 -8 10 13 12 13 20 0 5 -8 7 -18 5 -22 -3 -4 4 -8 15
-8 12 0 21 -5 21 -10 0 -6 11 -20 25 -32 13 -11 22 -25 19 -30 -3 -5 -2 -8 3
-7 20 3 34 -2 28 -11 -3 -5 1 -10 10 -10 12 0 15 -6 10 -22 -4 -15 -3 -18 2
-10 7 9 14 7 31 -9 12 -11 19 -25 16 -31 -4 -6 -3 -8 3 -5 5 4 20 -5 31 -18
12 -14 26 -25 32 -25 5 0 10 -6 10 -14 0 -8 8 -17 18 -21 9 -3 28 -21 42 -39
14 -19 28 -32 32 -29 5 2 8 -3 8 -12 0 -9 5 -13 10 -10 9 6 14 -8 11 -28 -1
-5 2 -6 7 -3 5 3 18 -5 29 -18 12 -13 27 -26 34 -29 12 -5 11 -8 -1 -17 -13
-10 -13 -11 1 -7 16 5 79 -46 79 -64 0 -5 7 -9 15 -9 14 0 20 -12 16 -33 -1
-5 3 -6 7 -3 12 7 44 -28 35 -38 -5 -4 -3 -6 3 -4 13 3 84 -57 84 -72 0 -6 7
-10 15 -10 8 0 15 -5 15 -10 0 -6 11 -20 25 -32 13 -11 22 -26 18 -31 -3 -6
-1 -7 5 -3 11 6 52 -30 52 -46 0 -5 5 -6 10 -3 6 3 10 -1 10 -10 0 -9 4 -13
10 -10 9 6 14 -8 11 -28 -1 -5 2 -6 7 -3 5 3 19 -6 30 -19 12 -14 26 -25 32
-25 5 0 10 -10 10 -22 0 -16 3 -19 8 -10 6 9 12 6 22 -12 7 -14 17 -23 22 -20
4 3 8 -2 8 -11 0 -9 5 -13 10 -10 9 6 14 -8 11 -28 -1 -5 2 -6 7 -3 5 3 18 -5
29 -18 12 -13 27 -26 34 -29 12 -5 11 -8 -1 -17 -13 -10 -13 -11 1 -7 16 5 79
-46 79 -64 0 -5 7 -9 15 -9 14 0 20 -12 16 -33 -1 -5 3 -6 7 -3 12 7 44 -28
35 -38 -5 -4 -3 -6 3 -4 13 3 84 -57 84 -72 0 -6 7 -10 15 -10 8 0 15 -5 15
-10 0 -6 11 -20 25 -32 13 -11 22 -26 18 -31 -3 -6 -1 -7 5 -3 11 6 52 -30 52
-46 0 -5 4 -6 10 -3 5 3 10 -1 10 -10 0 -9 4 -13 10 -10 9 6 14 -8 11 -28 -1
-5 2 -6 7 -3 5 3 19 -6 30 -19 12 -14 26 -25 32 -25 5 0 10 -6 10 -14 0 -8 10
-18 21 -21 17 -6 19 -9 8 -16 -10 -6 -8 -9 9 -9 12 0 22 -5 22 -10 0 -6 11
-20 25 -32 13 -11 22 -25 19 -30 -3 -5 -2 -8 3 -7 20 3 34 -2 28 -11 -3 -5 1
-10 10 -10 12 0 15 -6 10 -22 -4 -15 -3 -18 2 -10 7 9 14 7 31 -9 12 -11 19
-25 16 -31 -4 -6 -3 -8 3 -5 5 4 20 -5 31 -18 12 -14 26 -25 32 -25 5 0 10 -7
10 -15 0 -8 4 -15 10 -15 13 0 76 -70 72 -82 -1 -5 2 -7 6 -4 12 7 44 -28 35
-38 -5 -4 -3 -7 2 -6 22 5 35 -1 35 -15 0 -8 4 -15 9 -15 18 0 69 -63 64 -79
-4 -14 -3 -14 7 -1 9 12 12 13 17 1 3 -7 16 -22 29 -34 13 -11 21 -24 18 -29
-3 -5 -2 -8 3 -7 20 3 34 -2 28 -11 -3 -5 1 -10 10 -10 9 0 14 -3 12 -7 -3 -5
10 -19 29 -33 18 -14 36 -33 39 -42 4 -10 13 -18 21 -18 8 0 14 -5 14 -10 0
-6 11 -20 25 -32 13 -11 22 -26 18 -31 -3 -6 -1 -7 5 -3 11 6 52 -30 52 -46 0
-5 5 -6 10 -3 6 3 10 -1 10 -10 0 -9 5 -13 10 -10 9 6 14 -8 11 -28 -1 -5 2
-6 7 -3 5 3 19 -6 30 -19 12 -14 26 -25 32 -25 5 0 10 -9 10 -21 0 -11 4 -18
8 -15 4 2 14 0 22 -5 13 -8 13 -10 0 -20 -12 -8 -10 -9 8 -4 16 5 22 2 22 -10
0 -9 5 -13 10 -10 9 6 14 -8 11 -28 -1 -5 2 -6 7 -3 5 3 18 -5 29 -18 12 -13
27 -26 34 -29 12 -5 11 -8 -1 -17 -13 -10 -13 -11 1 -7 16 5 79 -46 79 -64 0
-5 7 -9 15 -9 14 0 20 -12 16 -33 -1 -5 3 -6 7 -3 12 7 44 -28 35 -39 -5 -4
-3 -5 4 -1 14 8 65 -43 56 -57 -3 -6 -2 -7 4 -4 5 4 20 -5 31 -18 12 -14 26
-25 32 -25 5 0 10 -7 10 -15 0 -8 4 -15 9 -15 18 0 69 -63 64 -79 -4 -14 -3
-14 7 -1 9 12 12 13 17 1 3 -7 16 -22 29 -34 13 -11 21 -24 18 -29 -3 -5 -2
-8 3 -7 20 3 34 -2 28 -11 -3 -5 1 -10 10 -10 9 0 13 -4 10 -10 -3 -5 1 -10 9
-10 14 0 20 -12 17 -32 0 -5 8 -8 19 -8 11 0 20 -5 20 -10 0 -6 11 -20 25 -32
13 -11 22 -25 19 -30 -3 -5 -2 -8 3 -7 20 3 34 -2 28 -11 -3 -5 1 -10 10 -10
9 0 13 -5 10 -10 -3 -6 -2 -10 3 -10 16 0 52 -41 46 -52 -4 -6 -3 -8 3 -5 5 4
20 -5 31 -18 12 -14 27 -25 33 -25 5 0 7 -5 3 -12 -4 -6 4 -4 17 5 13 10 24
22 24 27 0 5 15 21 34 35 19 14 32 25 28 25 -4 0 6 14 24 31 26 26 33 28 47
17 15 -11 15 -11 5 3 -10 12 -7 21 16 47 16 17 31 29 34 26 3 -3 13 8 23 25
10 17 26 34 36 37 9 3 20 14 23 25 5 14 13 18 31 15 14 -3 22 -1 19 5 -4 5
-12 6 -18 2 -20 -11 15 29 71 83 29 28 54 49 56 47 2 -2 10 7 18 19 9 13 41
49 73 80 49 49 61 56 74 45 14 -10 14 -10 3 5 -11 14 -9 21 17 47 17 18 31 29
31 26 0 -8 30 22 32 32 1 4 16 20 32 35 24 23 33 25 45 15 14 -10 14 -10 3 5
-11 14 -9 21 17 47 17 18 31 29 31 25 0 -3 15 12 33 34 17 22 45 48 60 57 16
9 26 19 24 21 -4 5 114 123 148 149 11 8 17 15 14 15 -4 0 26 33 65 73 39 40
74 71 78 70 4 -2 14 9 23 24 10 16 35 43 57 61 22 17 37 32 34 32 -4 0 7 14
25 31 26 26 33 28 47 17 15 -11 15 -11 5 3 -10 12 -7 21 16 47 16 17 31 29 34
26 3 -3 13 8 23 25 10 17 26 33 35 36 9 3 21 17 27 30 6 14 16 25 22 25 6 0 9
-4 6 -8 -3 -5 2 -9 10 -9 9 0 11 4 5 10 -11 11 -3 39 10 31 5 -3 9 -1 9 4 0
11 88 101 93 95 3 -2 11 7 19 19 20 30 119 128 130 128 4 0 8 5 8 11 0 7 8 17
17 24 15 11 -296 325 -2520 2549 -1394 1395 -2531 2536 -2526 2536 6 0 7 5 3
12 -5 8 -2 9 10 5 9 -4 15 -3 12 2 -6 9 62 81 77 81 4 0 5 5 2 10 -3 6 2 10
11 10 10 0 14 3 11 6 -4 4 9 19 29 35 19 15 35 30 35 33 -1 3 1 6 4 6 11 -1
33 25 28 33 -2 4 3 7 12 7 10 0 13 5 9 12 -5 8 -2 9 10 5 9 -4 15 -3 11 2 -3
6 3 14 12 20 10 6 14 11 8 11 -5 0 -3 4 5 10 9 6 20 5 30 -3 13 -11 13 -10 1
5 -11 15 -11 19 3 24 9 3 13 10 10 15 -5 8 9 13 29 10 4 0 6 3 5 7 -2 4 9 23
25 41 15 18 27 30 27 27 0 -3 8 2 18 12 11 9 18 19 17 22 -1 3 9 15 22 27 13
12 23 20 23 17 0 -3 6 1 14 8 8 7 12 16 10 19 -7 13 24 17 37 6 11 -10 11 -9
0 5 -11 15 -11 19 3 24 9 3 13 10 10 15 -5 8 9 13 29 10 4 0 6 5 5 11 -2 7 3
12 10 10 6 -1 11 1 11 5 -4 23 3 35 16 29 8 -3 14 -2 14 2 -3 20 3 23 19 11
15 -12 16 -12 5 1 -8 10 -9 21 -3 30 6 8 10 11 10 7 0 -4 6 -2 14 5 8 7 12 15
11 18 -2 3 10 15 26 25 16 11 29 26 29 33 0 6 8 12 17 12 9 0 14 3 10 6 -7 7
54 60 65 56 4 -1 7 1 7 5 -3 20 2 34 10 29 5 -3 12 1 15 10 5 14 9 14 24 3 15
-12 16 -12 5 1 -8 10 -9 21 -3 30 6 8 10 11 10 5 0 -5 5 -2 11 8 6 9 14 15 20
12 5 -4 6 2 2 11 -4 12 -3 15 5 10 7 -4 12 -1 12 9 0 9 3 14 8 12 7 -5 33 17
32 28 0 3 3 5 6 4 3 0 18 16 33 35 16 20 31 33 35 29 3 -3 6 1 6 11 0 9 5 14
10 11 6 -3 10 -2 10 3 0 14 72 82 81 76 5 -3 6 3 2 12 -4 12 -3 15 5 10 7 -4
12 -1 12 8 0 9 4 15 9 14 5 -2 9 1 9 6 0 17 26 25 42 13 13 -11 13 -10 1 5
-11 15 -11 19 3 24 9 3 13 10 10 15 -5 8 10 13 29 10 5 -1 6 3 3 7 -7 12 28
44 38 35 4 -5 7 -3 6 2 -4 19 0 36 8 32 4 -2 15 4 25 15 9 10 15 18 12 18 -2
0 6 10 18 23 12 13 24 22 27 21 3 -1 11 4 18 12 7 8 9 14 5 14 -4 0 -1 4 7 10
9 6 20 5 30 -3 13 -11 13 -10 1 6 -12 15 -9 21 11 18 4 0 5 6 2 14 -6 14 6 20
29 16 5 -1 6 3 2 9 -3 5 1 13 9 16 9 3 13 10 10 15 -3 5 2 9 11 9 10 0 13 5 9
12 -5 8 -2 9 10 5 9 -4 15 -3 12 1 -8 13 22 44 35 36 7 -4 10 -3 5 4 -3 6 5
19 19 30 13 11 21 22 18 26 -3 3 2 6 12 6 10 0 15 3 12 6 -4 4 9 19 29 35 19
15 36 31 37 36 1 4 8 7 14 7 7 -1 10 2 7 7 -3 5 0 9 6 9 6 0 8 5 5 10 -3 6 1
10 10 10 10 0 13 5 9 12 -5 8 -2 9 12 4 10 -4 15 -4 11 0 -9 10 43 65 54 58 5
-3 6 3 2 12 -4 12 -3 15 5 10 7 -4 12 -1 12 9 0 9 3 14 8 12 7 -5 33 17 32 28
0 3 3 5 6 4 3 0 18 16 33 35 16 20 31 33 35 29 3 -3 6 1 6 11 0 9 5 14 10 11
6 -3 10 -2 10 2 0 15 72 83 81 77 5 -3 6 3 2 12 -4 12 -3 15 5 10 7 -4 12 -1
12 9 0 9 4 14 9 11 5 -3 12 1 15 10 3 8 11 12 16 9 6 -4 10 -3 9 2 -4 23 2 35
16 29 8 -3 14 -2 14 2 -3 20 3 23 19 11 15 -12 16 -12 5 1 -8 10 -9 21 -3 30
6 8 10 11 10 7 0 -4 6 -2 14 5 8 7 12 16 9 21 -4 7 12 11 30 8 5 -1 6 3 2 9
-3 5 1 13 9 16 9 3 16 12 16 20 0 8 7 14 17 14 9 0 14 3 10 6 -7 7 54 60 65
56 4 -1 7 1 7 5 -3 20 2 34 10 29 5 -3 12 1 15 10 5 14 9 14 24 3 15 -12 16
-12 5 1 -8 10 -9 21 -3 30 6 8 10 11 10 5 0 -5 5 -2 11 8 6 9 14 15 20 12 5
-4 6 2 2 11 -4 12 -3 15 5 10 7 -4 12 -1 12 9 0 9 5 13 10 10 6 -3 10 -1 10 5
0 6 4 9 9 6 5 -3 8 0 7 7 0 6 3 13 7 14 5 1 21 18 36 37 16 20 31 33 35 29 3
-3 6 1 6 11 0 9 5 14 10 11 6 -3 10 -2 10 2 0 15 72 83 81 77 5 -3 6 3 2 12
-4 12 -3 15 5 10 7 -4 12 -1 12 9 0 9 4 14 9 11 5 -3 12 1 15 10 3 8 11 12 16
9 6 -4 10 -3 9 2 -4 23 2 35 16 29 8 -3 14 -2 14 2 -3 20 3 23 19 11 15 -12
16 -12 5 1 -8 10 -9 21 -3 30 6 8 10 11 10 7 0 -4 6 -2 14 5 8 7 13 15 12 18
-1 3 8 15 21 27 13 12 23 20 23 18 0 -3 8 3 18 13 11 9 17 20 15 25 -4 7 12
11 30 8 5 -1 6 3 3 7 -7 12 28 44 38 35 4 -5 7 -3 6 2 -4 20 0 36 9 31 5 -3
12 1 15 10 5 14 9 14 24 3 15 -12 16 -12 5 1 -12 16 -4 40 13 43 5 1 8 5 6 10
-1 4 5 7 14 7 9 0 12 5 8 12 -5 8 -2 9 10 5 9 -4 15 -3 12 1 -8 13 22 44 35
36 7 -4 10 -3 5 4 -3 6 5 19 19 30 13 11 21 22 18 26 -3 3 2 6 12 6 10 0 15 3
12 6 -4 4 9 19 29 35 19 15 35 30 35 33 -1 3 0 5 2 4 6 -6 35 27 30 35 -2 4 3
7 12 7 10 0 13 5 9 12 -5 8 -2 9 9 5 10 -4 16 -2 14 6 -1 7 6 11 16 11 13 -2
15 1 7 11 -14 17 13 28 31 12 11 -10 11 -9 0 5 -11 15 -11 19 3 24 9 3 13 10
10 15 -5 8 10 13 29 10 5 -1 6 3 3 7 -7 12 28 44 38 35 4 -5 7 -3 6 2 -4 19 0
36 8 32 4 -2 15 4 25 15 9 10 15 18 12 18 -2 0 6 10 18 23 12 13 24 22 27 21
3 -1 11 4 18 12 7 8 9 14 5 14 -4 0 -1 4 7 10 9 6 20 5 30 -3 13 -11 13 -10 1
5 -11 15 -11 19 3 24 9 3 13 10 10 15 -5 8 10 13 29 10 5 -1 6 3 3 7 -7 12 28
44 38 35 4 -4 4 1 0 11 -5 14 -4 17 4 12 7 -4 12 -1 12 9 0 9 3 14 8 12 7 -5
26 11 30 26 1 4 5 7 8 6 3 0 18 16 33 35 16 20 31 33 35 29 3 -3 6 1 6 11 0 9
5 14 10 11 6 -3 10 -2 10 2 0 15 72 83 81 77 5 -3 6 3 2 12 -4 12 -3 15 5 10
7 -4 12 -1 12 9 0 9 4 14 9 11 5 -3 12 1 15 10 3 8 11 12 16 9 6 -4 10 -3 9 2
-4 23 2 35 16 29 8 -3 14 -2 14 2 -3 20 3 23 19 11 14 -11 15 -11 5 0 -11 13
-7 44 6 37 3 -2 12 2 19 10 7 8 11 14 8 14 -3 0 5 10 17 23 12 13 24 23 27 22
3 -1 13 6 23 17 9 10 14 18 11 18 -3 0 9 12 27 28 18 15 37 26 41 24 4 -1 7 1
7 5 -3 20 2 34 10 29 5 -3 12 1 15 10 5 14 9 14 24 3 15 -12 16 -12 5 1 -12
16 -4 42 13 42 5 0 8 4 6 9 -1 5 5 9 14 9 9 0 12 5 8 12 -5 8 -2 9 10 5 9 -4
15 -3 12 1 -8 13 22 44 35 36 7 -4 10 -3 5 4 -3 6 5 19 19 30 13 11 21 22 18
26 -3 3 2 6 12 6 10 0 15 3 12 6 -4 4 9 19 29 35 19 15 36 31 37 36 1 4 8 7
14 7 7 -1 10 2 7 7 -3 5 0 9 6 9 6 0 8 5 5 10 -3 6 1 10 10 10 10 0 13 5 9 12
-5 8 -2 9 10 5 9 -4 15 -3 11 2 -3 6 3 14 12 20 10 6 14 11 8 11 -5 0 -3 4 5
10 9 6 20 5 30 -3 13 -11 13 -10 1 5 -11 15 -11 19 3 24 9 3 13 10 10 15 -5 8
10 13 29 10 5 -1 6 3 3 7 -7 12 28 44 38 35 4 -5 7 -3 6 2 -4 19 0 36 8 32 4
-2 15 4 25 15 9 10 15 18 12 18 -2 0 6 10 18 23 12 13 24 22 27 21 3 -1 11 4
18 12 7 8 10 14 7 14 -3 0 9 13 27 29 l32 28 -967 967 -967 967 -2535 -2535
-2535 -2535 -2535 2535 -2535 2535 -967 -967z"/>
</g>
</svg>
